<svg width="1200" height="360" viewBox="0 0 1200 360" xmlns="http://www.w3.org/2000/svg">
<defs>
  <linearGradient id="bg" x1="0" y1="0" x2="1200" y2="360">
    <stop stop-color="#06111f"/>
    <stop offset=".52" stop-color="#0d1830"/>
    <stop offset="1" stop-color="#090d1a"/>
  </linearGradient>
  <linearGradient id="line" x1="130" y1="80" x2="1080" y2="305">
    <stop stop-color="#22d3ee"/>
    <stop offset=".52" stop-color="#8b5cf6"/>
    <stop offset="1" stop-color="#22c55e"/>
  </linearGradient>
  <radialGradient id="g1" cx="0" cy="0" r="1" gradientTransform="translate(1030 20) rotate(145) scale(440 300)">
    <stop stop-color="#7c3aed" stop-opacity=".32"/><stop offset="1" stop-color="#7c3aed" stop-opacity="0"/>
  </radialGradient>
  <radialGradient id="g2" cx="0" cy="0" r="1" gradientTransform="translate(80 340) rotate(-35) scale(380 240)">
    <stop stop-color="#06b6d4" stop-opacity=".25"/><stop offset="1" stop-color="#06b6d4" stop-opacity="0"/>
  </radialGradient>
</defs>
<rect width="1200" height="360" rx="28" fill="url(#bg)"/>
<rect width="1200" height="360" rx="28" fill="url(#g1)"/>
<rect width="1200" height="360" rx="28" fill="url(#g2)"/>
<g opacity=".22" stroke="#8bdcff">
  <path d="M0 294 C180 210 250 348 420 264 S760 220 1200 302"/>
  <path d="M0 318 C190 244 280 360 480 288 S835 250 1200 332"/>
</g>
<g opacity=".26">
  <circle cx="995" cy="90" r="4" fill="#67e8f9"/><circle cx="1050" cy="135" r="5" fill="#a78bfa"/><circle cx="1100" cy="82" r="3" fill="#4ade80"/>
  <path d="M995 90 L1050 135 L1100 82" stroke="url(#line)" stroke-width="1.5"/>
  <circle cx="148" cy="74" r="3" fill="#67e8f9"/><circle cx="205" cy="112" r="4" fill="#a78bfa"/><circle cx="258" cy="75" r="3" fill="#4ade80"/>
  <path d="M148 74 L205 112 L258 75" stroke="url(#line)" stroke-width="1.5"/>
</g>
<text x="600" y="112" text-anchor="middle" fill="#f8fafc" font-family="Inter,Segoe UI,Arial,sans-serif" font-size="54" font-weight="700">Kevin Meng</text>
<text x="600" y="158" text-anchor="middle" fill="#cbd5e1" font-family="Inter,Segoe UI,Arial,sans-serif" font-size="22">Building AI-native systems for risk, knowledge &amp; real-world workflows</text>
<rect x="217" y="202" width="172" height="38" rx="19" fill="#0e7490" fill-opacity=".32" stroke="#22d3ee" stroke-opacity=".55"/>
<rect x="405" y="202" width="190" height="38" rx="19" fill="#6d28d9" fill-opacity=".28" stroke="#a78bfa" stroke-opacity=".55"/>
<rect x="611" y="202" width="230" height="38" rx="19" fill="#166534" fill-opacity=".25" stroke="#4ade80" stroke-opacity=".50"/>
<rect x="857" y="202" width="170" height="38" rx="19" fill="#92400e" fill-opacity=".22" stroke="#fbbf24" stroke-opacity=".48"/>
<text x="303" y="227" text-anchor="middle" fill="#cffafe" font-family="Inter,Segoe UI,Arial,sans-serif" font-size="15" font-weight="600">AI AGENTS</text>
<text x="500" y="227" text-anchor="middle" fill="#ede9fe" font-family="Inter,Segoe UI,Arial,sans-serif" font-size="15" font-weight="600">RISK INTELLIGENCE</text>
<text x="726" y="227" text-anchor="middle" fill="#dcfce7" font-family="Inter,Segoe UI,Arial,sans-serif" font-size="15" font-weight="600">KNOWLEDGE INFRA</text>
<text x="942" y="227" text-anchor="middle" fill="#fef3c7" font-family="Inter,Segoe UI,Arial,sans-serif" font-size="15" font-weight="600">PRODUCT BUILDING</text>
<path d="M250 276 H950" stroke="url(#line)" stroke-width="2" opacity=".55"/>
<circle cx="250" cy="276" r="4" fill="#22d3ee"/><circle cx="485" cy="276" r="4" fill="#8b5cf6"/><circle cx="720" cy="276" r="4" fill="#22c55e"/><circle cx="950" cy="276" r="4" fill="#f59e0b"/>
<text x="600" y="315" text-anchor="middle" fill="#94a3b8" font-family="Inter,Segoe UI,Arial,sans-serif" font-size="15">Build useful things · connect knowledge · let intelligence compound</text>
</svg>